<?xml version="1.0" encoding="utf-8"?>
<!-- Generator: Adobe Illustrator 19.2.1, SVG Export Plug-In . SVG Version: 6.00 Build 0)  -->
<svg  version="1.1" id="Layer_3" xmlns="http://www.w3.org/2000/svg" x="0px" y="0px"
	 viewBox="0 0 100 100" style="enable-background:new 0 0 100 100;" xml:space="preserve">
<style type="text/css">
	.st0{fill:#8CC540;}
</style>
<g>
	<g>
		<path class="st0" d="M91.6,52.1L57.2,86.5c-0.6,0.6-1.3,0.9-2.1,0.9c-0.8,0-1.5-0.3-2.1-0.9l-7.7-7.7c-0.6-0.6-0.9-1.3-0.9-2.1
			c0-0.8,0.3-1.5,0.9-2.1L70,50L45.4,25.4c-0.6-0.6-0.9-1.3-0.9-2.1c0-0.8,0.3-1.5,0.9-2.1l7.7-7.7c0.6-0.6,1.3-0.9,2.1-0.9
			c0.8,0,1.5,0.3,2.1,0.9l34.4,34.4c0.6,0.6,0.9,1.3,0.9,2.1C92.5,50.8,92.2,51.5,91.6,52.1z"/>
	</g>
	<g>
		<path class="st0" d="M54.6,52.1L20.2,86.5c-0.6,0.6-1.3,0.9-2.1,0.9c-0.8,0-1.5-0.3-2.1-0.9l-7.7-7.7c-0.6-0.6-0.9-1.3-0.9-2.1
			c0-0.8,0.3-1.5,0.9-2.1L33,50L8.4,25.4c-0.6-0.6-0.9-1.3-0.9-2.1c0-0.8,0.3-1.5,0.9-2.1l7.7-7.7c0.6-0.6,1.3-0.9,2.1-0.9
			c0.8,0,1.5,0.3,2.1,0.9l34.4,34.4c0.6,0.6,0.9,1.3,0.9,2.1C55.5,50.8,55.2,51.5,54.6,52.1z"/>
	</g>
</g>
</svg>
